<svg viewBox="0 0 21 21" fill="none" xmlns="http://www.w3.org/2000/svg">
<path d="M6.375 7.5C6.18594 7.5 6.03125 7.65 6.03125 7.83333V8.29375L9.7373 11.2438C10.182 11.5979 10.8201 11.5979 11.2648 11.2438L14.9688 8.29375V7.83333C14.9688 7.65 14.8141 7.5 14.625 7.5H6.375ZM6.03125 9.5875V13.1667C6.03125 13.35 6.18594 13.5 6.375 13.5H14.625C14.8141 13.5 14.9688 13.35 14.9688 13.1667V9.5875L11.918 12.0167C11.093 12.6729 9.90488 12.6729 9.08203 12.0167L6.03125 9.5875ZM5 7.83333C5 7.09792 5.6166 6.5 6.375 6.5H14.625C15.3834 6.5 16 7.09792 16 7.83333V13.1667C16 13.9021 15.3834 14.5 14.625 14.5H6.375C5.6166 14.5 5 13.9021 5 13.1667V7.83333Z" fill="#414141"/>
</svg>
