<svg viewBox="0 0 21 21" fill="none" xmlns="http://www.w3.org/2000/svg">
<path d="M8.23839 15.5H6.16518V8.82351H8.23839V15.5ZM7.20067 7.91278C6.53772 7.91278 6 7.36366 6 6.7007C6 6.38225 6.1265 6.07685 6.35167 5.85168C6.57684 5.6265 6.88223 5.5 7.20067 5.5C7.51911 5.5 7.8245 5.6265 8.04967 5.85168C8.27484 6.07685 8.40134 6.38225 8.40134 6.7007C8.40134 7.36366 7.86339 7.91278 7.20067 7.91278ZM15.9978 15.5H13.929V12.2499C13.929 11.4754 13.9134 10.482 12.8511 10.482C11.7732 10.482 11.608 11.3236 11.608 12.1941V15.5H9.53705V8.82351H11.5254V9.73425H11.5545C11.8313 9.20968 12.5074 8.6561 13.5161 8.6561C15.6143 8.6561 16 10.0378 16 11.8325V15.5H15.9978Z" fill="#414141"/>
</svg>
