<svg viewBox="0 0 70 70" fill="none" xmlns="http://www.w3.org/2000/svg">
<circle cx="35" cy="35" r="35" fill="white"/>
<g transform="translate(4 22)">
<path d="M1.67432 15.3354V13.9438H6.3501V15.3354H1.67432ZM27.3262 19V18.1836L28.3374 18.1094C28.4735 18.097 28.5755 18.0475 28.6436 17.9609C28.7178 17.8743 28.7549 17.7847 28.7549 17.6919V7.21777L24.3853 19H23.439L19.2178 7.39404V17.6919C19.2178 17.7847 19.2518 17.8743 19.3198 17.9609C19.394 18.0475 19.4992 18.097 19.6353 18.1094L20.7207 18.1836V19H16.6108V18.1836L17.6963 18.1094C17.8324 18.097 17.9313 18.0475 17.9932 17.9609C18.0612 17.8743 18.0952 17.7847 18.0952 17.6919V7.56104C18.0952 7.46826 18.0612 7.37858 17.9932 7.29199C17.9313 7.2054 17.8324 7.15592 17.6963 7.14355L16.6108 7.06934V6.25293H20.8691V6.76318L24.311 16.0962L27.7529 6.81885V6.25293H32.1226V7.06934L31.0928 7.14355C30.9567 7.15592 30.8516 7.2054 30.7773 7.29199C30.7093 7.37858 30.6753 7.46826 30.6753 7.56104V17.6919C30.6753 17.7847 30.7093 17.8743 30.7773 17.9609C30.8516 18.0475 30.9567 18.097 31.0928 18.1094L32.1226 18.1836V19H27.3262ZM45.1943 12.5986C45.1943 13.1491 45.1418 13.6903 45.0366 14.2222C44.9315 14.7541 44.7676 15.2581 44.5449 15.7344C44.3223 16.2106 44.0347 16.6497 43.6821 17.0518C43.3358 17.4476 42.9183 17.7909 42.4297 18.0815C41.9411 18.3722 41.3783 18.598 40.7412 18.7588C40.1042 18.9196 39.3898 19 38.5981 19H33.3193V18.1836L34.3213 18.1094C34.4574 18.097 34.5594 18.0475 34.6274 17.9609C34.7017 17.8743 34.7388 17.7847 34.7388 17.6919V7.56104C34.7388 7.46826 34.7017 7.37858 34.6274 7.29199C34.5594 7.2054 34.4574 7.15592 34.3213 7.14355L33.3193 7.06934V6.25293H38.2178C39.2135 6.25293 40.1382 6.37972 40.9917 6.6333C41.8452 6.8807 42.5812 7.26416 43.1997 7.78369C43.8244 8.30322 44.313 8.96191 44.6655 9.75977C45.0181 10.5576 45.1943 11.5039 45.1943 12.5986ZM43.042 12.6357C43.042 11.64 42.9245 10.7957 42.6895 10.103C42.4606 9.40413 42.1297 8.83822 41.6968 8.40527C41.27 7.96615 40.7505 7.65072 40.1382 7.45898C39.5321 7.26107 38.8548 7.16211 38.1064 7.16211H36.6592V18.0908L38.1992 18.0723C38.929 18.0661 39.5908 17.964 40.1846 17.7661C40.7845 17.562 41.2948 17.2435 41.7153 16.8105C42.1359 16.3776 42.4606 15.8179 42.6895 15.1313C42.9245 14.4448 43.042 13.613 43.042 12.6357ZM55.6313 15.3354V13.9438H60.3071V15.3354H55.6313Z" fill="#37673F"/>

</g>
</svg>