<svg  viewBox="0 0 256 35" fill="none" xmlns="http://www.w3.org/2000/svg">
<path d="M77.1021 19V18.1836L78.1134 18.1094C78.2494 18.097 78.3515 18.0475 78.4195 17.9609C78.4937 17.8743 78.5309 17.7847 78.5309 17.6919V7.21777L74.1612 19H73.2149L68.9937 7.39404V17.6919C68.9937 17.7847 69.0278 17.8743 69.0958 17.9609C69.17 18.0475 69.2752 18.097 69.4112 18.1094L70.4967 18.1836V19H66.3868V18.1836L67.4723 18.1094C67.6083 18.097 67.7073 18.0475 67.7691 17.9609C67.8372 17.8743 67.8712 17.7847 67.8712 17.6919V7.56104C67.8712 7.46826 67.8372 7.37858 67.7691 7.29199C67.7073 7.2054 67.6083 7.15592 67.4723 7.14355L66.3868 7.06934V6.25293H70.6451V6.76318L74.087 16.0962L77.5289 6.81885V6.25293H81.8985V7.06934L80.8687 7.14355C80.7327 7.15592 80.6275 7.2054 80.5533 7.29199C80.4853 7.37858 80.4513 7.46826 80.4513 7.56104V17.6919C80.4513 17.7847 80.4853 17.8743 80.5533 17.9609C80.6275 18.0475 80.7327 18.097 80.8687 18.1094L81.8985 18.1836V19H77.1021ZM90.6749 19V18.1836L91.7696 18.0908C91.8191 18.0908 91.8655 18.0599 91.9088 17.998C91.9521 17.93 91.9737 17.8682 91.9737 17.8125C91.9737 17.7878 91.9706 17.7723 91.9644 17.7661L90.6563 14.2871H86.2682L85.0064 17.7104C85.0003 17.7228 84.9972 17.7414 84.9972 17.7661C84.9972 17.8403 85.0281 17.9146 85.0899 17.9888C85.158 18.0568 85.2198 18.0908 85.2755 18.0908L86.398 18.1836V19H82.5758V18.1836L83.6798 17.9517L88.1051 5.94678H89.5338L93.9405 17.6733C93.9838 17.8032 94.024 17.8898 94.0611 17.9331C94.1044 17.9764 94.1972 18.0104 94.3394 18.0352L95.193 18.1836V19H90.6749ZM88.4483 8.396L86.6021 13.3779H90.3131L88.4483 8.396ZM107.615 19.0557C107.572 19.0618 107.51 19.0773 107.43 19.1021C107.349 19.1268 107.254 19.1546 107.142 19.1855C107.031 19.2165 106.907 19.2443 106.771 19.269C106.641 19.2938 106.505 19.3062 106.363 19.3062C105.794 19.3062 105.333 19.2196 104.981 19.0464C104.628 18.8794 104.34 18.6567 104.118 18.3784C103.901 18.0939 103.731 17.7723 103.608 17.4136C103.484 17.0549 103.369 16.6899 103.264 16.3188C103.159 15.9416 103.042 15.5736 102.912 15.2148C102.788 14.8561 102.612 14.5376 102.383 14.2593C102.154 13.9748 101.857 13.749 101.492 13.582C101.127 13.4089 100.654 13.3223 100.073 13.3223C99.9739 13.3223 99.8749 13.3254 99.776 13.3315C99.677 13.3315 99.5873 13.3346 99.5069 13.3408C99.4327 13.347 99.3678 13.3532 99.3121 13.3594C99.2564 13.3594 99.2255 13.3594 99.2193 13.3594V17.6919C99.2193 17.7847 99.2503 17.8743 99.3121 17.9609C99.3801 18.0475 99.4822 18.097 99.6183 18.1094L100.62 18.1836V19H95.898V18.1836L96.8814 18.1094C97.0175 18.097 97.1196 18.0475 97.1876 17.9609C97.2618 17.8743 97.2989 17.7847 97.2989 17.6919V7.56104C97.2989 7.46826 97.2618 7.37858 97.1876 7.29199C97.1196 7.2054 97.0175 7.15592 96.8814 7.14355L95.898 7.06934V6.25293H100.852C101.576 6.25293 102.225 6.31169 102.8 6.4292C103.376 6.54671 103.864 6.73844 104.266 7.00439C104.668 7.27035 104.974 7.61979 105.185 8.05273C105.401 8.47949 105.509 9.00521 105.509 9.62988C105.509 10.1309 105.423 10.5607 105.25 10.9194C105.076 11.2782 104.844 11.5812 104.554 11.8286C104.269 12.076 103.938 12.277 103.561 12.4316C103.184 12.5863 102.794 12.71 102.392 12.8027C102.906 12.9264 103.317 13.0996 103.626 13.3223C103.935 13.5387 104.18 13.7861 104.359 14.0645C104.538 14.3428 104.671 14.6396 104.758 14.9551C104.844 15.2643 104.922 15.5736 104.99 15.8828C105.058 16.1859 105.135 16.4766 105.222 16.7549C105.308 17.0332 105.441 17.2806 105.621 17.4971C105.806 17.7135 106.054 17.8867 106.363 18.0166C106.678 18.1403 107.096 18.2021 107.615 18.2021V19.0557ZM103.441 9.71338C103.441 9.30518 103.379 8.94645 103.255 8.63721C103.131 8.32178 102.933 8.05583 102.661 7.83936C102.395 7.62288 102.049 7.45898 101.622 7.34766C101.202 7.23633 100.691 7.18066 100.091 7.18066H99.2193V12.3853C99.2317 12.3853 99.275 12.3883 99.3492 12.3945C99.4234 12.3945 99.5069 12.3945 99.5997 12.3945C99.6987 12.3945 99.7976 12.3976 99.8966 12.4038C100.002 12.4038 100.091 12.4038 100.166 12.4038C100.691 12.4038 101.158 12.3605 101.566 12.2739C101.975 12.1812 102.318 12.0296 102.596 11.8193C102.875 11.609 103.085 11.3338 103.227 10.9937C103.369 10.6473 103.441 10.2205 103.441 9.71338ZM117.579 9.28662L117.31 7.50537C117.292 7.40641 117.254 7.3291 117.199 7.27344C117.149 7.21159 117.081 7.18066 116.995 7.18066H114.276V17.6919C114.276 17.7847 114.307 17.8743 114.369 17.9609C114.437 18.0475 114.539 18.097 114.675 18.1094L115.891 18.1836V19H110.742V18.1836L111.957 18.1094C112.093 18.097 112.192 18.0475 112.254 17.9609C112.322 17.8743 112.356 17.7847 112.356 17.6919V7.18066H109.619C109.533 7.18066 109.458 7.21159 109.397 7.27344C109.341 7.3291 109.307 7.40641 109.295 7.50537L109.035 9.28662H107.931V6.25293H118.702V9.28662H117.579ZM119.648 19V18.1836L120.78 18.1094C120.916 18.097 121.015 18.0475 121.077 17.9609C121.145 17.8743 121.179 17.7847 121.179 17.6919V7.56104C121.179 7.46826 121.145 7.38167 121.077 7.30127C121.015 7.22087 120.916 7.17448 120.78 7.16211L119.648 7.08789V6.25293H124.658V7.08789L123.498 7.16211C123.368 7.17448 123.269 7.22087 123.201 7.30127C123.133 7.38167 123.099 7.46826 123.099 7.56104V17.6919C123.099 17.7847 123.133 17.8743 123.201 17.9609C123.269 18.0475 123.368 18.097 123.498 18.1094L124.658 18.1836V19H119.648ZM137.377 7.14355C137.241 7.15592 137.139 7.2054 137.071 7.29199C137.009 7.37858 136.978 7.46826 136.978 7.56104V19H135.494L128.424 8.35889V17.6919C128.424 17.7847 128.455 17.8743 128.517 17.9609C128.585 18.0475 128.687 18.097 128.823 18.1094L129.909 18.1836V19H125.799V18.1836L126.884 18.1094C127.02 18.097 127.122 18.0475 127.191 17.9609C127.265 17.8743 127.302 17.7847 127.302 17.6919V7.56104C127.302 7.46826 127.265 7.37858 127.191 7.29199C127.122 7.2054 127.02 7.15592 126.884 7.14355L125.762 7.06934V6.25293H129.528V6.72607L135.856 16.2817V7.56104C135.856 7.46826 135.822 7.37858 135.754 7.29199C135.685 7.2054 135.587 7.15592 135.457 7.14355L134.371 7.06934V6.25293H138.435V7.06934L137.377 7.14355ZM139.613 19V18.1836L140.596 18.1094C140.732 18.097 140.834 18.0475 140.902 17.9609C140.977 17.8743 141.014 17.7847 141.014 17.6919V7.56104C141.014 7.46826 140.977 7.37858 140.902 7.29199C140.834 7.2054 140.732 7.15592 140.596 7.14355L139.613 7.06934V6.25293H148.844V9.08252H147.703L147.415 7.52393C147.403 7.43115 147.363 7.34766 147.295 7.27344C147.233 7.19922 147.158 7.16211 147.072 7.16211H142.953V11.8936H145.801C145.887 11.8936 145.965 11.8564 146.033 11.7822C146.107 11.708 146.144 11.6369 146.144 11.5688L146.339 10.2607H147.304V14.5005H146.339L146.144 13.1831C146.144 13.1151 146.107 13.0409 146.033 12.9604C145.959 12.88 145.881 12.8398 145.801 12.8398H142.953V18.0723H147.758C147.839 18.0723 147.913 18.029 147.981 17.9424C148.049 17.8558 148.089 17.7785 148.102 17.7104L148.445 15.8271H149.465V19H139.613ZM150.588 19V18.1836L151.692 18.1094C151.828 18.097 151.927 18.0475 151.989 17.9609C152.057 17.8743 152.091 17.7847 152.091 17.6919V7.56104C152.091 7.46826 152.057 7.37858 151.989 7.29199C151.927 7.2054 151.828 7.15592 151.692 7.14355L150.588 7.06934V6.25293H155.44V7.06934L154.429 7.14355C154.293 7.15592 154.188 7.2054 154.113 7.29199C154.045 7.37858 154.011 7.46826 154.011 7.56104V18.0723H158.001C158.087 18.0723 158.174 18.0413 158.26 17.9795C158.353 17.9115 158.406 17.8341 158.418 17.7476L158.724 15.4653H159.828V19H150.588ZM160.682 19V18.1836L161.786 18.1094C161.922 18.097 162.021 18.0475 162.083 17.9609C162.151 17.8743 162.185 17.7847 162.185 17.6919V7.56104C162.185 7.46826 162.151 7.37858 162.083 7.29199C162.021 7.2054 161.922 7.15592 161.786 7.14355L160.682 7.06934V6.25293H165.534V7.06934L164.523 7.14355C164.386 7.15592 164.281 7.2054 164.207 7.29199C164.139 7.37858 164.105 7.46826 164.105 7.56104V18.0723H168.094C168.181 18.0723 168.268 18.0413 168.354 17.9795C168.447 17.9115 168.499 17.8341 168.512 17.7476L168.818 15.4653H169.922V19H160.682ZM170.878 19V18.1836L171.861 18.1094C171.997 18.097 172.099 18.0475 172.167 17.9609C172.241 17.8743 172.278 17.7847 172.278 17.6919V7.56104C172.278 7.46826 172.241 7.37858 172.167 7.29199C172.099 7.2054 171.997 7.15592 171.861 7.14355L170.878 7.06934V6.25293H180.108V9.08252H178.967L178.68 7.52393C178.667 7.43115 178.627 7.34766 178.559 7.27344C178.497 7.19922 178.423 7.16211 178.337 7.16211H174.217V11.8936H177.066C177.152 11.8936 177.229 11.8564 177.297 11.7822C177.372 11.708 177.409 11.6369 177.409 11.5688L177.604 10.2607H178.568V14.5005H177.604L177.409 13.1831C177.409 13.1151 177.372 13.0409 177.297 12.9604C177.223 12.88 177.146 12.8398 177.066 12.8398H174.217V18.0723H179.023C179.103 18.0723 179.178 18.029 179.246 17.9424C179.314 17.8558 179.354 17.7785 179.366 17.7104L179.71 15.8271H180.73V19H170.878Z" fill="#37673F"/>
<path d="M97.8699 31.2642V30.605H100.085V31.2642H97.8699ZM109.944 30.3047C109.944 30.5365 109.921 30.7643 109.877 30.9883C109.833 31.2122 109.764 31.4245 109.67 31.625C109.576 31.8255 109.455 32.0104 109.307 32.1797C109.161 32.3464 108.985 32.4909 108.78 32.6133C108.574 32.7357 108.337 32.8307 108.069 32.8984C107.8 32.9661 107.5 33 107.166 33H104.944V32.6562L105.365 32.625C105.423 32.6198 105.466 32.599 105.494 32.5625C105.526 32.526 105.541 32.4883 105.541 32.4492V28.1836C105.541 28.1445 105.526 28.1068 105.494 28.0703C105.466 28.0339 105.423 28.013 105.365 28.0078L104.944 27.9766V27.6328H107.006C107.425 27.6328 107.815 27.6862 108.174 27.793C108.533 27.8971 108.843 28.0586 109.104 28.2773C109.367 28.4961 109.572 28.7734 109.721 29.1094C109.869 29.4453 109.944 29.8438 109.944 30.3047ZM109.037 30.3203C109.037 29.901 108.988 29.5456 108.889 29.2539C108.793 28.9596 108.653 28.7214 108.471 28.5391C108.291 28.3542 108.072 28.2214 107.815 28.1406C107.559 28.0573 107.274 28.0156 106.959 28.0156H106.35V32.6172L106.998 32.6094C107.306 32.6068 107.584 32.5638 107.834 32.4805C108.087 32.3945 108.302 32.2604 108.479 32.0781C108.656 31.8958 108.793 31.6602 108.889 31.3711C108.988 31.082 109.037 30.7318 109.037 30.3203ZM110.514 33V32.6562L110.928 32.625C110.985 32.6198 111.028 32.599 111.057 32.5625C111.088 32.526 111.104 32.4883 111.104 32.4492V28.1836C111.104 28.1445 111.088 28.1068 111.057 28.0703C111.028 28.0339 110.985 28.013 110.928 28.0078L110.514 27.9766V27.6328H114.401V28.8242H113.92L113.799 28.168C113.794 28.1289 113.777 28.0938 113.748 28.0625C113.722 28.0312 113.691 28.0156 113.655 28.0156H111.92V30.0078H113.119C113.156 30.0078 113.188 29.9922 113.217 29.9609C113.248 29.9297 113.264 29.8997 113.264 29.8711L113.346 29.3203H113.752V31.1055H113.346L113.264 30.5508C113.264 30.5221 113.248 30.4909 113.217 30.457C113.186 30.4232 113.153 30.4062 113.119 30.4062H111.92V32.6094H113.944C113.977 32.6094 114.009 32.5911 114.037 32.5547C114.066 32.5182 114.083 32.4857 114.088 32.457L114.233 31.6641H114.662V33H110.514ZM118.776 31.4961C118.776 31.6992 118.735 31.8984 118.655 32.0938C118.576 32.2891 118.451 32.4635 118.28 32.6172C118.108 32.7708 117.888 32.8945 117.619 32.9883C117.351 33.082 117.03 33.1289 116.655 33.1289C116.436 33.1289 116.239 33.1133 116.065 33.082C115.893 33.0508 115.744 33.0169 115.619 32.9805C115.476 32.9362 115.347 32.8867 115.233 32.832V31.4141H115.737L115.842 32.3203C115.847 32.3516 115.863 32.3854 115.889 32.4219C115.918 32.4583 115.946 32.4831 115.975 32.4961L116.041 32.5312C116.08 32.5495 116.134 32.5703 116.201 32.5938C116.269 32.6146 116.351 32.6341 116.447 32.6523C116.546 32.6706 116.658 32.6797 116.783 32.6797C116.953 32.6797 117.109 32.6589 117.252 32.6172C117.398 32.5729 117.523 32.5104 117.627 32.4297C117.731 32.349 117.812 32.25 117.869 32.1328C117.929 32.0156 117.959 31.8828 117.959 31.7344C117.959 31.5729 117.912 31.4323 117.819 31.3125C117.727 31.1901 117.612 31.082 117.471 30.9883C117.333 30.8919 117.182 30.806 117.018 30.7305C116.854 30.6549 116.699 30.582 116.553 30.5117C116.389 30.4336 116.231 30.3529 116.08 30.2695C115.932 30.1862 115.8 30.0898 115.686 29.9805C115.574 29.8711 115.484 29.7435 115.416 29.5977C115.351 29.4492 115.319 29.2734 115.319 29.0703C115.319 28.8333 115.365 28.6185 115.459 28.4258C115.553 28.2331 115.682 28.069 115.846 27.9336C116.013 27.7956 116.208 27.6901 116.432 27.6172C116.658 27.5417 116.903 27.5039 117.166 27.5039C117.309 27.5039 117.444 27.5117 117.569 27.5273C117.694 27.543 117.811 27.5638 117.92 27.5898C118.032 27.6133 118.136 27.6406 118.233 27.6719C118.329 27.7005 118.42 27.7279 118.506 27.7539L118.576 27.7773V29.0234H118.119L117.998 28.2578C117.993 28.2214 117.976 28.1953 117.947 28.1797C117.921 28.1615 117.897 28.1406 117.873 28.1172C117.863 28.1094 117.842 28.0964 117.811 28.0781C117.78 28.0573 117.735 28.0365 117.678 28.0156C117.623 27.9948 117.554 27.9766 117.471 27.9609C117.388 27.9453 117.29 27.9375 117.178 27.9375C117.016 27.9375 116.872 27.9609 116.744 28.0078C116.617 28.0547 116.509 28.1211 116.42 28.207C116.332 28.2904 116.263 28.3893 116.213 28.5039C116.166 28.6185 116.143 28.7435 116.143 28.8789C116.143 29.0013 116.166 29.1133 116.213 29.2148C116.263 29.3138 116.334 29.4062 116.428 29.4922C116.524 29.5755 116.641 29.6536 116.78 29.7266C116.918 29.7995 117.076 29.8698 117.256 29.9375C117.498 30.0286 117.713 30.1237 117.901 30.2227C118.091 30.3216 118.25 30.4323 118.377 30.5547C118.507 30.6771 118.606 30.8151 118.674 30.9688C118.742 31.1198 118.776 31.2956 118.776 31.4961ZM119.358 33V32.6562L119.834 32.625C119.891 32.6198 119.933 32.599 119.959 32.5625C119.988 32.526 120.002 32.4883 120.002 32.4492V28.1836C120.002 28.1445 119.988 28.1081 119.959 28.0742C119.933 28.0404 119.891 28.0208 119.834 28.0156L119.358 27.9844V27.6328H121.467V27.9844L120.979 28.0156C120.924 28.0208 120.882 28.0404 120.854 28.0742C120.825 28.1081 120.811 28.1445 120.811 28.1836V32.4492C120.811 32.4883 120.825 32.526 120.854 32.5625C120.882 32.599 120.924 32.6198 120.979 32.625L121.467 32.6562V33H119.358ZM126.686 30.793C126.628 30.7982 126.586 30.8177 126.557 30.8516C126.531 30.8828 126.518 30.9193 126.518 30.9609V32.8086C126.356 32.8685 126.184 32.9219 126.002 32.9688C125.846 33.0104 125.666 33.0469 125.463 33.0781C125.263 33.112 125.054 33.1289 124.838 33.1289C124.541 33.1289 124.265 33.0938 124.01 33.0234C123.757 32.9531 123.527 32.8542 123.319 32.7266C123.113 32.599 122.931 32.4479 122.772 32.2734C122.613 32.0964 122.479 31.9036 122.369 31.6953C122.263 31.487 122.182 31.2656 122.127 31.0312C122.072 30.7943 122.045 30.5521 122.045 30.3047C122.045 29.8854 122.112 29.5039 122.244 29.1602C122.377 28.8138 122.569 28.5182 122.819 28.2734C123.069 28.0286 123.372 27.8398 123.729 27.707C124.088 27.5716 124.492 27.5039 124.94 27.5039C125.075 27.5039 125.205 27.5117 125.33 27.5273C125.458 27.5404 125.58 27.5586 125.697 27.582C125.815 27.6029 125.929 27.6276 126.041 27.6562L126.377 27.7422L126.51 27.7773V29.0703H126.03L125.901 28.3516C125.893 28.3047 125.873 28.2656 125.842 28.2344C125.811 28.2005 125.777 28.1758 125.74 28.1602C125.73 28.1576 125.714 28.151 125.694 28.1406C125.652 28.1224 125.604 28.1029 125.549 28.082C125.494 28.0612 125.433 28.0417 125.365 28.0234C125.3 28.0026 125.229 27.9857 125.151 27.9727C125.075 27.9596 124.994 27.9531 124.908 27.9531C124.619 27.9531 124.355 28.0039 124.115 28.1055C123.876 28.207 123.67 28.3555 123.498 28.5508C123.326 28.7461 123.192 28.9883 123.096 29.2773C123.002 29.5638 122.955 29.8932 122.955 30.2656C122.955 30.6484 123.003 30.9896 123.1 31.2891C123.196 31.5885 123.333 31.8411 123.51 32.0469C123.69 32.2526 123.906 32.4102 124.158 32.5195C124.411 32.6263 124.694 32.6797 125.006 32.6797C125.095 32.6797 125.179 32.6732 125.26 32.6602C125.341 32.6471 125.412 32.6341 125.475 32.6211C125.537 32.6055 125.589 32.5911 125.631 32.5781C125.673 32.5651 125.699 32.5586 125.709 32.5586V30.9609C125.709 30.9193 125.695 30.8828 125.666 30.8516C125.64 30.8177 125.599 30.7982 125.541 30.793L125.006 30.7539V30.4062H127.092V30.7539L126.686 30.793ZM132.385 28.0078C132.328 28.013 132.285 28.0339 132.256 28.0703C132.23 28.1068 132.217 28.1445 132.217 28.1836V33H131.592L128.615 28.5195V32.4492C128.615 32.4883 128.628 32.526 128.655 32.5625C128.683 32.599 128.726 32.6198 128.783 32.625L129.24 32.6562V33H127.51V32.6562L127.967 32.625C128.024 32.6198 128.067 32.599 128.096 32.5625C128.127 32.526 128.143 32.4883 128.143 32.4492V28.1836C128.143 28.1445 128.127 28.1068 128.096 28.0703C128.067 28.0339 128.024 28.013 127.967 28.0078L127.494 27.9766V27.6328H129.08V27.832L131.744 31.8555V28.1836C131.744 28.1445 131.73 28.1068 131.701 28.0703C131.673 28.0339 131.631 28.013 131.576 28.0078L131.119 27.9766V27.6328H132.83V27.9766L132.385 28.0078ZM137.661 31.2642V30.605H139.876V31.2642H137.661Z" fill="#37673F"/>
</svg>
